<?xml version="1.0" encoding="UTF-8"?>
<!-- Generated by Pixelmator Pro 3.8 -->
<svg width="512" height="512" viewBox="0 0 512 512" xmlns="http://www.w3.org/2000/svg">
    <path id="path1" fill="#00aeef" fill-rule="evenodd" stroke="none" d="M 0 465 C 0 490.957397 21.042616 512 47 512 L 465 512 C 490.957397 512 512 490.957397 512 465 L 512 47 C 512 21.042603 490.957397 0 465 0 L 47 0 C 21.042616 0 0 21.042603 0 47 Z"/>
    <path id="MON" fill="#000000" fill-rule="evenodd" stroke="none" d="M 88.119995 199 L 134.359985 252.440002 L 134.359985 199 L 166.839996 199 L 166.839996 309.080017 L 135.959991 309.080017 L 89.720001 254.839996 L 89.720001 309.080017 L 57.23999 309.080017 L 57.23999 199 Z M 245.399994 311 C 226.413239 311 211.746704 306.146729 201.399994 296.440002 C 191.053284 286.733276 185.880005 272.600098 185.880005 254.040009 C 185.880005 235.479889 191.053284 221.34671 201.399994 211.639984 C 211.746704 201.933289 226.413239 197.079987 245.399994 197.079987 C 264.386749 197.079987 279.026611 201.906616 289.320007 211.559998 C 299.613373 221.213379 304.759979 235.37323 304.759979 254.040009 C 304.759979 272.706757 299.613373 286.866608 289.320007 296.52002 C 279.026611 306.173401 264.386749 311 245.399994 311 Z M 245.399994 284.600006 C 252.973389 284.600006 258.733307 282.306702 262.679993 277.720001 C 266.626678 273.133301 268.600006 266.946716 268.600006 259.160004 L 268.600006 248.919983 C 268.600006 241.133301 266.626678 234.946686 262.679993 230.359985 C 258.733307 225.773315 252.973389 223.47998 245.399994 223.47998 C 237.82663 223.47998 232.040039 225.773315 228.039978 230.359985 C 224.039978 234.946686 222.039978 241.133301 222.039978 248.919983 L 222.039978 259.160004 C 222.039978 266.946716 224.039978 273.133301 228.039978 277.720001 C 232.040039 282.306702 237.82663 284.600006 245.399994 284.600006 Z M 356.600006 199 L 356.600006 238.679993 C 356.600006 243.5867 356.41333 248.626648 356.040009 253.799988 C 355.666656 258.973358 355.266663 263.319977 354.839996 266.839996 C 354.41333 270.360016 354.146667 272.600006 354.040009 273.559998 L 354.679993 273.559998 L 375 199 L 402.679993 199 L 423.160004 273.399994 L 423.799988 273.399994 C 423.693329 272.440002 423.399994 270.226685 422.919983 266.76001 C 422.440002 263.293335 421.986664 258.973358 421.559998 253.799988 C 421.133331 248.626648 420.919983 243.5867 420.919983 238.679993 L 420.919983 199 L 453.399994 199 L 453.399994 309.080017 L 403.47998 309.080017 L 386.839996 245.559998 L 386.199982 245.559998 L 369.720001 309.080017 L 321.559998 309.080017 L 321.559998 199 Z"/>
</svg>
